<svg width="24" height="24" viewBox="0 0 24 24" fill="none" xmlns="http://www.w3.org/2000/svg">
<g clip-path="url(#clip0_9165_98676)">
<path d="M12 16.0127C12.5467 16.0127 13.014 16.2073 13.4033 16.5967C13.7927 16.986 13.9873 17.4533 13.9873 18C13.9873 18.5467 13.7927 19.014 13.4033 19.4033C13.014 19.7927 12.5467 19.9873 12 19.9873C11.4533 19.9873 10.986 19.7927 10.5967 19.4033C10.2073 19.014 10.0127 18.5467 10.0127 18C10.0127 17.4533 10.2073 16.986 10.5967 16.5967C10.986 16.2073 11.4533 16.0127 12 16.0127ZM12 10.0127C12.5467 10.0127 13.014 10.2073 13.4033 10.5967C13.7927 10.986 13.9873 11.4533 13.9873 12C13.9873 12.5467 13.7927 13.014 13.4033 13.4033C13.014 13.7927 12.5467 13.9873 12 13.9873C11.4533 13.9873 10.986 13.7927 10.5967 13.4033C10.2073 13.014 10.0127 12.5467 10.0127 12C10.0127 11.4533 10.2073 10.986 10.5967 10.5967C10.986 10.2073 11.4533 10.0127 12 10.0127ZM12 4.0127C12.5467 4.0127 13.014 4.20734 13.4033 4.59668C13.7927 4.98602 13.9873 5.45334 13.9873 6C13.9873 6.54666 13.7927 7.01398 13.4033 7.40332C13.014 7.79266 12.5467 7.9873 12 7.9873C11.4533 7.9873 10.986 7.79266 10.5967 7.40332C10.2073 7.01398 10.0127 6.54666 10.0127 6C10.0127 5.45334 10.2073 4.98602 10.5967 4.59668C10.986 4.20734 11.4533 4.0127 12 4.0127Z" fill="white"/>
<path d="M12 16.0127C12.5467 16.0127 13.014 16.2073 13.4033 16.5967C13.7927 16.986 13.9873 17.4533 13.9873 18C13.9873 18.5467 13.7927 19.014 13.4033 19.4033C13.014 19.7927 12.5467 19.9873 12 19.9873C11.4533 19.9873 10.986 19.7927 10.5967 19.4033C10.2073 19.014 10.0127 18.5467 10.0127 18C10.0127 17.4533 10.2073 16.986 10.5967 16.5967C10.986 16.2073 11.4533 16.0127 12 16.0127ZM12 10.0127C12.5467 10.0127 13.014 10.2073 13.4033 10.5967C13.7927 10.986 13.9873 11.4533 13.9873 12C13.9873 12.5467 13.7927 13.014 13.4033 13.4033C13.014 13.7927 12.5467 13.9873 12 13.9873C11.4533 13.9873 10.986 13.7927 10.5967 13.4033C10.2073 13.014 10.0127 12.5467 10.0127 12C10.0127 11.4533 10.2073 10.986 10.5967 10.5967C10.986 10.2073 11.4533 10.0127 12 10.0127ZM12 4.0127C12.5467 4.0127 13.014 4.20734 13.4033 4.59668C13.7927 4.98602 13.9873 5.45334 13.9873 6C13.9873 6.54666 13.7927 7.01398 13.4033 7.40332C13.014 7.79266 12.5467 7.9873 12 7.9873C11.4533 7.9873 10.986 7.79266 10.5967 7.40332C10.2073 7.01398 10.0127 6.54666 10.0127 6C10.0127 5.45334 10.2073 4.98602 10.5967 4.59668C10.986 4.20734 11.4533 4.0127 12 4.0127Z" stroke="white" stroke-width="0.025"/>
<path d="M12 16.0127C12.5467 16.0127 13.014 16.2073 13.4033 16.5967C13.7927 16.986 13.9873 17.4533 13.9873 18C13.9873 18.5467 13.7927 19.014 13.4033 19.4033C13.014 19.7927 12.5467 19.9873 12 19.9873C11.4533 19.9873 10.986 19.7927 10.5967 19.4033C10.2073 19.014 10.0127 18.5467 10.0127 18C10.0127 17.4533 10.2073 16.986 10.5967 16.5967C10.986 16.2073 11.4533 16.0127 12 16.0127ZM12 10.0127C12.5467 10.0127 13.014 10.2073 13.4033 10.5967C13.7927 10.986 13.9873 11.4533 13.9873 12C13.9873 12.5467 13.7927 13.014 13.4033 13.4033C13.014 13.7927 12.5467 13.9873 12 13.9873C11.4533 13.9873 10.986 13.7927 10.5967 13.4033C10.2073 13.014 10.0127 12.5467 10.0127 12C10.0127 11.4533 10.2073 10.986 10.5967 10.5967C10.986 10.2073 11.4533 10.0127 12 10.0127ZM12 4.0127C12.5467 4.0127 13.014 4.20734 13.4033 4.59668C13.7927 4.98602 13.9873 5.45334 13.9873 6C13.9873 6.54666 13.7927 7.01398 13.4033 7.40332C13.014 7.79266 12.5467 7.9873 12 7.9873C11.4533 7.9873 10.986 7.79266 10.5967 7.40332C10.2073 7.01398 10.0127 6.54666 10.0127 6C10.0127 5.45334 10.2073 4.98602 10.5967 4.59668C10.986 4.20734 11.4533 4.0127 12 4.0127Z" stroke="white" stroke-width="0.025"/>
</g>
<defs>
<clipPath id="clip0_9165_98676">
<rect width="24" height="24" fill="white"/>
</clipPath>
</defs>
</svg>
